<?xml version="1.0" encoding="UTF-8" standalone="no"?>
<!-- Created with Inkscape (http://www.inkscape.org/) -->

<svg
   width="264.23404mm"
   height="141.23801mm"
   version="1.1"
   viewBox="0 0 132.11702 70.618001"
   xml:space="preserve"
   id="svg42"
   sodipodi:docname="matching.svg"
   inkscape:version="1.3.1 (91b66b0, 2023-11-16)"
   xmlns:inkscape="http://www.inkscape.org/namespaces/inkscape"
   xmlns:sodipodi="http://sodipodi.sourceforge.net/DTD/sodipodi-0.dtd"
   xmlns="http://www.w3.org/2000/svg"
   xmlns:svg="http://www.w3.org/2000/svg"><sodipodi:namedview
     id="namedview42"
     pagecolor="#ffffff"
     bordercolor="#000000"
     borderopacity="0.25"
     inkscape:showpageshadow="2"
     inkscape:pageopacity="0.0"
     inkscape:pagecheckerboard="0"
     inkscape:deskcolor="#d1d1d1"
     inkscape:document-units="mm"
     inkscape:zoom="0.71864718"
     inkscape:cx="498.15822"
     inkscape:cy="160.02289"
     inkscape:window-width="1728"
     inkscape:window-height="1387"
     inkscape:window-x="3232"
     inkscape:window-y="25"
     inkscape:window-maximized="0"
     inkscape:current-layer="svg42" /><defs
     id="defs1"><marker
       id="ArrowWide"
       overflow="visible"
       markerHeight="1"
       markerWidth="1"
       orient="auto-start-reverse"
       preserveAspectRatio="xMidYMid"
       viewBox="0 0 1 1"><path
         transform="rotate(180,0.125,0)"
         d="M 3,-3 0,0 3,3"
         fill="none"
         stroke="context-stroke"
         id="path1" /></marker><marker
       style="overflow:visible"
       id="ArrowWideHeavy"
       refX="0"
       refY="0"
       orient="auto-start-reverse"
       inkscape:stockid="Wide, heavy arrow"
       markerWidth="1"
       markerHeight="1"
       viewBox="0 0 1 1"
       inkscape:isstock="true"
       inkscape:collect="always"
       preserveAspectRatio="xMidYMid"><path
         style="fill:context-stroke;fill-rule:evenodd;stroke:none"
         d="m 1,0 -3,3 h -2 l 3,-3 -3,-3 h 2 z"
         id="path17-3" /></marker></defs><path
     d="M 0,-5.0007874e-4 H 132.11702 V 70.6185 H 0 Z"
     fill="#0f69af"
     stroke-width="1.0641"
     id="path2" /><g
     transform="translate(-12.171,-13.0565)"
     fill="none"
     id="g8"><path
       d="M 25.015,50.512 V 24.458"
       marker-end="url(#ArrowWide)"
       stroke="#ffffff"
       stroke-width="0.21167"
       id="path3" /><path
       d="m 24.506,50.014 h 36.2"
       marker-end="url(#ArrowWide)"
       stroke="#ffffff"
       stroke-width="0.22924"
       id="path4" /><path
       d="m 44.612,49.236 v 1.5561"
       stroke="#abdfdb"
       stroke-width="0.37042"
       id="path5" /><path
       d="M 44.784,23.631 H 31.672"
       stroke-dasharray="0.211666, 0.423332"
       stroke-width="0.21167"
       id="path6" /><path
       d="M 44.611,26.787 V 49.482"
       stroke="#abdfdb"
       stroke-dasharray="0.211666, 0.423332"
       stroke-width="0.21167"
       id="path7" /><path
       d="m 25.944,48.666 c 1.0112,-0.31519 1.9846,-0.72588 2.864,-1.2959 1.5783,-1.023 2.6956,-2.6426 3.8357,-4.1385 1.1998,-1.5743 2.13,-3.3382 3.1291,-5.047 1.481,-2.5328 2.603,-5.2792 4.2446,-7.711 0.50593,-0.74946 1.0895,-1.4489 1.715,-2.1019 0.44182,-0.46124 0.87283,-0.96392 1.4312,-1.2741 0.41357,-0.22975 0.88861,-0.38285 1.3614,-0.40142 0.42185,-0.01657 0.8592,0.07782 1.2392,0.2618 0.60607,0.29345 1.0797,0.81291 1.5533,1.2915 0.45378,0.45854 0.86499,0.96348 1.2217,1.501 1.5448,2.3275 2.5986,4.9461 3.9344,7.3995 1.0481,1.9251 1.9249,3.9619 3.2014,5.7438 0.72977,1.0187 1.5829,1.9579 2.5204,2.7895 1.1766,1.0437 3.3194,2.2926 3.8535,2.723"
       stroke="#ffdcb9"
       stroke-width="0.463"
       id="path8" /></g><g
     transform="translate(-12.171,-23.1285)"
     id="g14"><path
       d="M 25.015,88.957 V 62.903"
       fill="none"
       marker-end="url(#ArrowWide)"
       stroke="#ffffff"
       stroke-width="0.21167"
       id="path9" /><path
       d="m 24.506,88.459 h 36.2"
       fill="none"
       marker-end="url(#ArrowWide)"
       stroke="#ffffff"
       stroke-width="0.22924"
       id="path10" /><text
       x="35.660271"
       y="92.001709"
       fill="#abdfdb"
       font-family="'CMU Concrete'"
       font-size="3.175px"
       stroke="#ffffff"
       stroke-width="0.080564"
       xml:space="preserve"
       id="text10"><tspan
         x="35.660271"
         y="92.001709"
         fill="#abdfdb"
         font-family="'CMU Concrete'"
         font-size="3.175px"
         stroke="none"
         stroke-width="0.080564"
         id="tspan10">match value</tspan></text><g
       fill="none"
       id="g13"><path
         d="m 44.612,87.681 v 1.5561"
         stroke="#abdfdb"
         stroke-width="0.37042"
         id="path11" /><path
         d="M 44.611,65.232 V 87.927"
         stroke="#abdfdb"
         stroke-dasharray="0.211666, 0.423332"
         stroke-width="0.21167"
         id="path12" /><path
         d="m 25.944,66.091 c 1.0112,0.31519 1.9846,0.72588 2.864,1.2959 1.5783,1.023 2.6956,2.6426 3.8357,4.1385 1.1998,1.5743 2.13,3.3382 3.1291,5.047 1.481,2.5328 2.603,5.2792 4.2446,7.711 0.50593,0.74946 1.0895,1.4489 1.715,2.1019 0.44182,0.46124 0.87283,0.96392 1.4312,1.2741 0.41357,0.22975 0.88861,0.38285 1.3614,0.40142 0.42185,0.01657 0.8592,-0.07782 1.2392,-0.2618 0.60607,-0.29345 1.0797,-0.81291 1.5533,-1.2915 0.45378,-0.45854 0.86499,-0.96348 1.2217,-1.501 1.5448,-2.3275 2.5986,-4.9461 3.9344,-7.3995 1.0481,-1.9251 1.9249,-3.9619 3.2014,-5.7438 0.72977,-1.0187 1.5829,-1.9579 2.5204,-2.7895 1.1766,-1.0437 3.3194,-2.2926 3.8535,-2.723"
         stroke="#ffdcb9"
         stroke-width="0.463"
         id="path13" /></g></g><g
     transform="translate(-11.774,-13.3685)"
     fill="none"
     id="g18"><path
       d="M 62.904,50.512 V 24.458"
       marker-end="url(#ArrowWide)"
       stroke="#ffffff"
       stroke-width="0.21167"
       id="path14" /><path
       d="m 62.395,50.014 h 36.2"
       marker-end="url(#ArrowWide)"
       stroke="#ffffff"
       stroke-width="0.22924"
       id="path15" /><path
       d="m 82.501,49.236 v 1.5561"
       stroke="#abdfdb"
       stroke-width="0.37042"
       id="path16" /><path
       d="M 82.501,26.787 V 49.482"
       stroke="#abdfdb"
       stroke-dasharray="0.211666, 0.423332"
       stroke-width="0.21167"
       id="path17" /><path
       d="m 99.939,48.406 c -0.53408,-0.43042 -2.6768,-1.6793 -3.8535,-2.723 -0.93748,-0.83156 -1.7906,-1.7707 -2.5204,-2.7895 -1.2765,-1.7819 -2.1532,-3.8187 -3.2014,-5.7438 -1.3358,-2.4534 -2.3896,-5.072 -3.9344,-7.3995 -0.35674,-0.5375 -0.76795,-1.0424 -1.2217,-1.501 -0.47366,-0.47863 -0.94727,-0.99809 -1.5533,-1.2915 -0.37998,-0.18398 -0.75815,-0.2618 -1.2392,-0.2618 h -18.892"
       stroke="#ffdcb9"
       stroke-width="0.463"
       id="path18" /></g><g
     transform="translate(65.036,-13.0565)"
     fill="none"
     id="g24"><path
       d="M 25.015,50.512 V 24.458"
       marker-end="url(#ArrowWide)"
       stroke="#ffffff"
       stroke-width="0.21167"
       id="path19" /><path
       d="m 24.506,50.014 h 36.2"
       marker-end="url(#ArrowWide)"
       stroke="#ffffff"
       stroke-width="0.22924"
       id="path20" /><path
       d="m 44.612,49.236 v 1.5561"
       stroke="#abdfdb"
       stroke-width="0.37042"
       id="path21" /><path
       d="M 44.784,23.631 H 31.672"
       stroke-dasharray="0.211666, 0.423332"
       stroke-width="0.21167"
       id="path22" /><path
       d="M 44.611,26.787 V 49.482"
       stroke="#abdfdb"
       stroke-dasharray="0.211666, 0.423332"
       stroke-width="0.21167"
       id="path23" /><path
       d="m 25.944,48.666 c 1.0112,-0.31519 1.9846,-0.72588 2.864,-1.2959 1.5783,-1.023 2.6956,-2.6426 3.8357,-4.1385 1.1998,-1.5743 2.13,-3.3382 3.1291,-5.047 1.481,-2.5328 2.603,-5.2792 4.2446,-7.711 0.50593,-0.74946 1.0895,-1.4489 1.715,-2.1019 0.44182,-0.46124 0.87283,-0.96392 1.4312,-1.2741 0.41357,-0.22975 1.0504,-0.40142 1.3614,-0.40142 h 15.406"
       stroke="#ffdcb9"
       stroke-width="0.463"
       id="path24" /></g><g
     transform="translate(-11.774,15.3165)"
     id="g30"><path
       d="M 62.904,50.512 V 24.458"
       fill="none"
       marker-end="url(#ArrowWide)"
       stroke="#ffffff"
       stroke-width="0.21167"
       id="path25" /><path
       d="m 62.395,50.014 h 36.2"
       fill="none"
       marker-end="url(#ArrowWide)"
       stroke="#ffffff"
       stroke-width="0.22924"
       id="path26" /><text
       x="73.549751"
       y="53.556908"
       fill="#abdfdb"
       font-family="'CMU Concrete'"
       font-size="3.175px"
       stroke="#ffffff"
       stroke-width="0.080564"
       xml:space="preserve"
       id="text26"><tspan
         x="73.549751"
         y="53.556908"
         fill="#abdfdb"
         font-family="'CMU Concrete'"
         font-size="3.175px"
         stroke="none"
         stroke-width="0.080564"
         id="tspan26">match value</tspan></text><g
       fill="none"
       id="g29"><path
         d="m 82.501,49.236 v 1.5561"
         stroke="#abdfdb"
         stroke-width="0.37042"
         id="path27" /><path
         d="M 82.501,26.787 V 49.482"
         stroke="#abdfdb"
         stroke-dasharray="0.211666, 0.423332"
         stroke-width="0.21167"
         id="path28" /><path
         d="m 99.939,26.643 c -0.53408,0.43042 -2.6768,1.6793 -3.8535,2.723 -0.93748,0.83156 -1.7906,1.7707 -2.5204,2.7895 -1.2765,1.7819 -2.1532,3.8187 -3.2014,5.7438 -1.3358,2.4534 -2.3896,5.072 -3.9344,7.3995 -0.35674,0.5375 -0.76795,1.0424 -1.2217,1.501 -0.47366,0.47863 -0.94727,0.99809 -1.5533,1.2915 -0.37998,0.18398 -0.84865,0.2618 -1.2392,0.2618 h -18.892"
         stroke="#ffdcb9"
         stroke-width="0.463"
         id="path29" /></g></g><g
     transform="translate(65.036,15.6285)"
     id="g36"><path
       d="M 25.015,50.512 V 24.458"
       fill="none"
       marker-end="url(#ArrowWide)"
       stroke="#ffffff"
       stroke-width="0.21167"
       id="path30" /><path
       d="m 24.506,50.014 h 36.2"
       fill="none"
       marker-end="url(#ArrowWide)"
       stroke="#ffffff"
       stroke-width="0.22924"
       id="path31" /><text
       x="35.660271"
       y="53.556908"
       fill="#abdfdb"
       font-family="'CMU Concrete'"
       font-size="3.175px"
       stroke="#ffffff"
       stroke-width="0.080564"
       xml:space="preserve"
       id="text31"><tspan
         x="35.660271"
         y="53.556908"
         fill="#abdfdb"
         font-family="'CMU Concrete'"
         font-size="3.175px"
         stroke="none"
         stroke-width="0.080564"
         id="tspan31">match value</tspan></text><g
       fill="none"
       id="g35"><path
         d="m 44.612,49.236 v 1.5561"
         stroke="#abdfdb"
         stroke-width="0.37042"
         id="path32" /><path
         d="M 44.784,23.631 H 31.672"
         stroke-dasharray="0.211666, 0.423332"
         stroke-width="0.21167"
         id="path33" /><path
         d="M 44.611,26.787 V 49.482"
         stroke="#abdfdb"
         stroke-dasharray="0.211666, 0.423332"
         stroke-width="0.21167"
         id="path34" /><path
         d="m 25.944,26.686 c 1.0112,0.31519 1.9846,0.72588 2.864,1.2959 1.5783,1.023 2.6956,2.6426 3.8357,4.1385 1.1998,1.5743 2.13,3.3382 3.1291,5.047 1.481,2.5328 2.603,5.2792 4.2446,7.711 0.50593,0.74946 1.0895,1.4489 1.715,2.1019 0.44182,0.46124 0.87283,0.96392 1.4312,1.2741 0.41357,0.22975 0.76287,0.40142 1.3614,0.40142 h 15.406"
         stroke="#ffdcb9"
         stroke-width="0.463"
         id="path35" /></g></g><g
     fill="#ffffff"
     font-family="'CMU Concrete'"
     font-size="3.175px"
     stroke="#ffffff"
     stroke-width="0.080564"
     id="g42"
     transform="translate(0,-5.0007874e-4)"><text
       x="60.799633"
       y="3.1398463"
       xml:space="preserve"
       id="text36"><tspan
         x="60.799633"
         y="3.1398463"
         fill="#ffffff"
         font-family="'CMU Concrete'"
         font-size="3.175px"
         stroke="none"
         stroke-width="0.080564"
         id="tspan36">match mode</tspan></text><text
       transform="rotate(-90)"
       x="-51.398743"
       y="3.5914285"
       xml:space="preserve"
       id="text37"><tspan
         x="-51.398743"
         y="3.5914285"
         fill="#ffffff"
         font-family="'CMU Concrete'"
         font-size="3.175px"
         stroke="none"
         stroke-width="0.080564"
         id="tspan37">mismatch_instead</tspan></text><text
       x="28.259375"
       y="8.8276978"
       xml:space="preserve"
       id="text38"><tspan
         x="28.259375"
         y="8.8276978"
         fill="#ffffff"
         font-family="'CMU Concrete'"
         font-size="3.175px"
         stroke="none"
         stroke-width="0.080564"
         id="tspan38">&quot;=&quot;</tspan></text><text
       x="65.310928"
       y="8.2494507"
       xml:space="preserve"
       id="text39"><tspan
         x="65.310928"
         y="8.2494507"
         fill="#ffffff"
         font-family="'CMU Concrete'"
         font-size="3.175px"
         stroke="none"
         stroke-width="0.080564"
         id="tspan39">&quot;&lt;=&quot;</tspan></text><text
       x="103.59727"
       y="8.2494507"
       xml:space="preserve"
       id="text40"><tspan
         x="103.59727"
         y="8.2494507"
         fill="#ffffff"
         font-family="'CMU Concrete'"
         font-size="3.175px"
         stroke="none"
         stroke-width="0.080564"
         id="tspan40">&quot;&gt;=&quot;</tspan></text><text
       transform="rotate(-90)"
       x="-57.472733"
       y="8.6252041"
       xml:space="preserve"
       id="text41"><tspan
         x="-57.472733"
         y="8.6252041"
         fill="#ffffff"
         font-family="'CMU Concrete'"
         font-size="3.175px"
         stroke="none"
         stroke-width="0.080564"
         id="tspan41">True</tspan></text><text
       transform="rotate(-90)"
       x="-27.635529"
       y="8.6252041"
       xml:space="preserve"
       id="text42"><tspan
         x="-27.635529"
         y="8.6252041"
         fill="#ffffff"
         font-family="'CMU Concrete'"
         font-size="3.175px"
         stroke="none"
         stroke-width="0.080564"
         id="tspan42">False</tspan></text></g><g
     id="g43"
     transform="translate(-5.5321084,2.6204702)"><text
       x="-28.127975"
       y="134.60451"
       fill="#abdfdb"
       font-size="3.37594px"
       stroke="#ffffff"
       stroke-width="0.0805647"
       xml:space="preserve"
       id="text5-3"
       transform="rotate(-90)"
       style="font-style:normal;font-variant:normal;font-weight:normal;font-stretch:normal;font-size:3.175px;font-family:'CMU Concrete';-inkscape-font-specification:'CMU Concrete'"><tspan
         x="-28.127975"
         y="134.60451"
         fill="#abdfdb"
         font-family="Arial"
         font-size="3.37594px"
         stroke="none"
         stroke-width="0.0805647"
         id="tspan5-8"
         style="font-style:normal;font-variant:normal;font-weight:normal;font-stretch:normal;font-size:3.175px;font-family:'CMU Concrete';-inkscape-font-specification:'CMU Concrete'">maximize</tspan></text><path
       style="fill:none;stroke:#abdfdb;stroke-width:0.2115;stroke-dasharray:none;stroke-opacity:1;marker-end:url(#ArrowWideHeavy)"
       d="M 136.07767,25.203454 V 18.206253"
       id="path14-2"
       sodipodi:nodetypes="cc" /></g><g
     id="g44"
     transform="translate(-5.5321084,32.697176)"><text
       x="-28.127975"
       y="134.60451"
       fill="#abdfdb"
       font-size="3.37594px"
       stroke="#ffffff"
       stroke-width="0.0805647"
       xml:space="preserve"
       id="text43"
       transform="rotate(-90)"
       style="font-style:normal;font-variant:normal;font-weight:normal;font-stretch:normal;font-size:3.175px;font-family:'CMU Concrete';-inkscape-font-specification:'CMU Concrete'"><tspan
         x="-28.127975"
         y="134.60451"
         fill="#abdfdb"
         font-family="Arial"
         font-size="3.37594px"
         stroke="none"
         stroke-width="0.0805647"
         id="tspan43"
         style="font-style:normal;font-variant:normal;font-weight:normal;font-stretch:normal;font-size:3.175px;font-family:'CMU Concrete';-inkscape-font-specification:'CMU Concrete'">maximize</tspan></text><path
       style="fill:none;stroke:#abdfdb;stroke-width:0.2115;stroke-dasharray:none;stroke-opacity:1;marker-end:url(#ArrowWideHeavy)"
       d="M 136.07767,25.203454 V 18.206253"
       id="path43"
       sodipodi:nodetypes="cc" /></g></svg>
